<svg xmlns="http://www.w3.org/2000/svg" data-name="Layer 1" fill="orange" viewBox="0 0 100 100" x="0px" y="0px"><title>Cactus</title><path d="M90.25,76.23H62V71h3.89l.35,2c.11.63,1.08.36,1-.27L66.89,71h2.26a4.2,4.2,0,0,0,4.3-4.07v-.37a8.54,8.54,0,0,0,1.75.12c.64,0,.65-1,0-1a7.34,7.34,0,0,1-1.75-.13V60.13a9.15,9.15,0,0,0,1.72-.32c.61-.19.35-1.15-.27-1a8,8,0,0,1-1.46.27,3.78,3.78,0,0,0-3.87-3.6h-.19l-.27-2.69c-.06-.64-1.06-.64-1,0l.27,2.73A3.74,3.74,0,0,0,65,59.2v1.44a1.32,1.32,0,0,1-1.39,1.22H62V55.73l1.84-.28c.63-.1.36-1.06-.27-1L62,54.72V47.84a8.7,8.7,0,0,0,1.69-.14c.63-.12.36-1.09-.27-1a6.76,6.76,0,0,1-1.42.12V37.93A9.29,9.29,0,0,0,64,38c.64-.05.65-1.05,0-1a8.68,8.68,0,0,1-2-.07v-7.7c.76-.38,1.51-.77,2.24-1.22.54-.34,0-1.2-.51-.86s-1.14.67-1.73,1v-.38A8.35,8.35,0,0,0,58.62,21,24,24,0,0,1,60,18.42c.34-.55-.53-1.05-.86-.5a23.08,23.08,0,0,0-1.32,2.57,8.3,8.3,0,0,0-4.16-1.12H51.08c0-1.12-.07-2.24,0-3.37,0-.64-1-.64-1,0,0,1.13,0,2.25,0,3.37H47.69a8.29,8.29,0,0,0-5.19,1.82l-1.67-2c-.41-.49-1.11.22-.7.71l1.62,2a8.33,8.33,0,0,0-2.43,5.88v1.75l-2.64-.83c-.62-.19-.88.77-.27,1l2.91.91v8.73a10.52,10.52,0,0,1-2.13-.46c-.62-.2-.88.77-.27,1a11.81,11.81,0,0,0,2.4.51v6.56H37.11a2.17,2.17,0,0,1-1.59-.51,1.3,1.3,0,0,1-.27-.44,11.42,11.42,0,0,1,2.35-1.65c.57-.3.07-1.17-.5-.87A12.46,12.46,0,0,0,35,44.79a12.33,12.33,0,0,1,0-1.36c0-.25,0-.47,0-.66A4.69,4.69,0,0,0,33,38.89c1.33-.89,2.36-2.22,1.85-3.52a1.33,1.33,0,0,0-1.89-.71,2.81,2.81,0,0,0-1.07,1.09c0-1.12-.35-2.13-1.29-2.4-1.18-.34-1.37,1.33-1.31,2.95-.77-1.28-1.82-2.35-3-1.65-1.64,1,0,2.61,1.51,3.72A4.7,4.7,0,0,0,25.06,41,14.45,14.45,0,0,1,23,39.87c-.54-.35-1,.52-.5.87a15,15,0,0,0,2.32,1.2,4.58,4.58,0,0,0-.09.83v9l-2.56-1.09c-.59-.24-1.1.62-.51.87l3,1.25.1,0v.59a5.25,5.25,0,0,0,5.24,5.24h.48l-.35.57c-.35.54.52,1,.86.5.22-.36.45-.71.68-1.07h7.71v9a7.83,7.83,0,0,1-1.75-1.16c-.48-.43-1.19.27-.71.7A8.78,8.78,0,0,0,39,68.58a.5.5,0,0,0,.36,0v7.63H12.07a1.5,1.5,0,0,0,0,3H90.25a1.5,1.5,0,0,0,0-3ZM62,63.86h1.59A3.31,3.31,0,0,0,67,60.64V59.2a1.78,1.78,0,0,1,1.87-1.68h.73a1.79,1.79,0,0,1,1.88,1.68v7.72A2.2,2.2,0,0,1,69.15,69H62Zm-22.67-7.2H29.94a3.25,3.25,0,0,1-3.24-3.24V42.77a2.7,2.7,0,0,1,2.59-2.69v5.25a8.56,8.56,0,0,1-.94-.63c-.5-.39-1.22.31-.71.71a10.9,10.9,0,0,0,1.65,1v2a4,4,0,0,0,1.44,3L29.2,53a.5.5,0,0,0,.7.7c.57-.54,1.13-1.09,1.69-1.64a4,4,0,0,0,1.7.39h6Zm0-6.21h-6a2,2,0,0,1-2-2V40.26A2.67,2.67,0,0,1,33,42.77c0,.16,0,.35,0,.56-.06,1.24-.15,3.11,1,4.36a4,4,0,0,0,3,1.14h2.22Zm7.14-21.31L45,27.08c-.37-.51-1.24,0-.86.51l1.82,2.51a.52.52,0,0,0,.54.2V43.79q-.68-.76-1.38-1.5a.5.5,0,0,0-.71.71,31.33,31.33,0,0,1,2.09,2.37V61.11l-1.2-1.33c-.43-.48-1.13.23-.7.7l1.9,2.13V76H42.32V27.73a5.36,5.36,0,0,1,4.14-5.2Zm6.15-1.69-1.35-1.67c-.4-.5-1.1.21-.7.71l2,2.54v18.5a16,16,0,0,1-1.41-1.66c-.38-.52-1.24,0-.86.5A18.08,18.08,0,0,0,52.61,49V63.22q-.27-.37-.57-.72c-.44-.48-1.14.23-.71.71A11,11,0,0,1,52.61,65V76H48.46V71.53a21.71,21.71,0,0,0,2.7-2.07c.48-.43-.23-1.14-.7-.71a23,23,0,0,1-2,1.57V53.94L51,51.62c.48-.43-.23-1.14-.7-.71l-1.83,1.68V36.13a12.87,12.87,0,0,0,1.85-1.84c.4-.5-.31-1.21-.71-.7a13.4,13.4,0,0,1-1.14,1.24V22.37h4.15ZM59,76H54.61V72.23l2.28-2c.48-.43-.23-1.14-.71-.71l-1.57,1.41V58.21l2.12-2.35c.42-.48-.28-1.19-.71-.71l-1.41,1.57v-16a8.69,8.69,0,0,1,2.5-1.93c.58-.29.07-1.15-.5-.86a9.5,9.5,0,0,0-2,1.38V22.47A5.36,5.36,0,0,1,59,27.73Z"/><path d="M80.91,83.48H21.4a1,1,0,1,0,0,2H80.91a1,1,0,0,0,0-2Z"/></svg>